 http://img43.imageshack.us/img43/9576/63763391.jpg


Format : AVI
Format/Info : Audio Video Interleave
File size : 702 MiB
Duration : 1h 45mn
Overall bit rate : 931 Kbps
Writing library : VirtualDub build 32842/release

Video
ID : 0
Format : MPEG-4 Visual
Format profile : Advanced Simple@L5
Format settings, BVOP : 4
Format settings, QPel : No
Format settings, GMC : No warppoints
Format settings, Matrix : Default (H.263)
Muxing mode : Packed bitstream
Codec ID : XVID
Codec ID/Hint : XviD
Duration : 1h 45mn
Bit rate : 793 Kbps
Width : 640 pixels
Height : 352 pixels
Display aspect ratio : 16:9
Frame rate : 23.976 fps
Color space : YUV
Chroma subsampling : 4:2:0
Bit depth : 8 bits
Scan type : Progressive
Compression mode : Lossy
Bits/(Pixel*Frame) : 0.147
Stream size : 599 MiB (85%)
Writing library : XviD 64

Audio
ID : 1
Format : MPEG Audio
Format version : Version 1
Format profile : Layer 3
Codec ID : 55
Codec ID/Hint : MP3
Duration : 1h 45mn
Bit rate mode : Constant
Bit rate : 128 Kbps
Channel(s) : 2 channels
Sampling rate : 44.1 KHz
Compression mode : Lossy
Stream size : 96.6 MiB (14%)
Alignment : Split accross interleaves
Interleave, duration : 42 ms (1.00 video frame)
Interleave, preload duration : 500 ms
Writing library : LAME3.99r
Encoding settings : -m s -V 4 -q 3 -lowpass 17 -b 128


Plot

A charming, suicidal druggie must obey his rehab-clinic's demand to lead a seniors men's group or face incarceration and lose the love of his psychiatrist's daughter.

 
http://www.shotpix.com/images/25267055876837121534.png 
http://www.shotpix.com/images/37188403042622937741.png 
http://www.shotpix.com/images/74182896133527246748.png